<svg id="svg" version="1.1" xmlns="http://www.w3.org/2000/svg" xmlns:xlink="http://www.w3.org/1999/xlink" width="400" height="245.01578709968427" viewBox="0, 0, 400,245.01578709968427"><g id="svgg"><path id="path0" d="M123.991 83.456 L 123.590 83.737 123.590 129.978 C 123.590 174.546,123.602 176.229,123.920 176.517 C 124.346 176.902,125.634 176.911,126.013 176.532 C 126.270 176.276,126.297 171.803,126.297 129.993 L 126.297 83.737 125.896 83.456 C 125.675 83.302,125.247 83.175,124.944 83.175 C 124.640 83.175,124.212 83.302,123.991 83.456 M84.096 92.352 C 85.707 93.577,88.769 97.002,88.769 97.581 C 88.769 97.679,88.840 97.787,88.927 97.820 C 89.154 97.906,90.164 100.132,90.620 101.548 C 91.272 103.577,91.171 107.804,90.420 109.968 C 89.716 111.992,89.700 111.863,90.660 111.863 C 94.295 111.863,96.720 113.967,96.277 116.737 C 96.133 117.636,96.395 117.558,97.203 116.462 C 98.775 114.331,96.328 110.419,93.424 110.419 C 93.151 110.419,93.115 110.331,93.220 109.923 C 93.642 108.297,93.265 104.461,92.436 101.940 C 91.857 100.181,90.774 98.012,90.128 97.319 C 90.025 97.208,89.705 96.817,89.416 96.450 C 88.182 94.881,85.949 93.018,84.026 91.953 C 82.774 91.260,82.791 91.361,84.096 92.352 M65.629 101.706 C 65.853 101.749,66.218 101.749,66.441 101.706 C 66.664 101.663,66.482 101.628,66.035 101.628 C 65.589 101.628,65.406 101.663,65.629 101.706 M84.754 101.706 C 84.977 101.749,85.343 101.749,85.566 101.706 C 85.789 101.663,85.607 101.628,85.160 101.628 C 84.714 101.628,84.531 101.663,84.754 101.706 M64.410 103.262 C 64.161 103.378,63.571 103.741,63.100 104.069 C 62.206 104.692,61.964 104.687,61.704 104.041 C 61.556 103.674,61.547 103.678,61.536 104.122 C 61.512 105.116,62.119 105.309,63.096 104.615 C 65.371 102.999,67.065 103.042,68.652 104.754 C 69.114 105.253,69.824 105.227,69.824 104.712 C 69.824 104.533,69.714 104.476,69.497 104.545 C 69.284 104.612,68.923 104.438,68.460 104.044 C 67.225 102.993,65.644 102.688,64.410 103.262 M83.536 103.251 C 83.288 103.363,82.778 103.692,82.403 103.980 C 81.934 104.341,81.581 104.479,81.275 104.420 C 80.774 104.324,80.671 104.650,81.093 105.000 C 81.377 105.236,81.495 105.189,82.454 104.459 C 84.315 103.042,86.024 103.102,87.710 104.641 C 88.585 105.441,88.913 105.310,89.059 104.105 C 89.111 103.671,89.106 103.673,88.926 104.150 C 88.703 104.739,88.434 104.775,87.907 104.284 C 86.589 103.057,84.865 102.649,83.536 103.251 M62.811 109.302 C 62.683 113.506,67.910 115.049,69.078 111.152 C 69.398 110.085,69.316 109.698,68.944 110.517 C 67.578 113.523,63.390 112.829,62.964 109.527 C 62.839 108.558,62.834 108.550,62.811 109.302 M133.153 130.627 L 133.153 152.639 142.355 152.639 L 151.556 152.639 151.556 150.383 L 151.556 148.128 144.971 148.128 L 138.385 148.128 138.385 140.370 L 138.385 132.612 143.708 132.612 L 149.030 132.612 149.030 130.356 L 149.030 128.101 143.708 128.101 L 138.385 128.101 138.385 120.704 L 138.385 113.306 144.971 113.306 L 151.556 113.306 151.556 110.961 L 151.556 108.615 142.355 108.615 L 133.153 108.615 133.153 130.627 M155.706 130.627 L 155.706 152.639 161.976 152.636 C 170.017 152.633,171.391 152.339,173.512 150.173 C 175.522 148.120,176.095 145.951,176.091 140.423 C 176.085 133.969,174.985 131.262,171.743 129.729 L 170.643 129.209 171.570 128.739 C 174.801 127.102,176.229 121.705,175.104 115.388 C 174.107 109.793,171.792 108.624,161.705 108.618 L 155.706 108.615 155.706 130.627 M180.424 130.627 L 180.424 152.639 183.040 152.639 L 185.656 152.639 185.656 130.627 L 185.656 108.615 183.040 108.615 L 180.424 108.615 180.424 130.627 M198.286 110.961 L 198.286 113.306 202.346 113.306 L 206.405 113.306 206.405 132.972 L 206.405 152.639 208.931 152.639 L 211.457 152.639 211.457 132.972 L 211.457 113.306 215.516 113.306 L 219.576 113.306 219.576 110.961 L 219.576 108.615 208.931 108.615 L 198.286 108.615 198.286 110.961 M222.824 130.627 L 222.824 152.639 232.025 152.639 L 241.227 152.639 241.227 150.383 L 241.227 148.128 234.641 148.128 L 228.056 148.128 228.056 140.370 L 228.056 132.612 233.378 132.612 L 238.701 132.612 238.701 130.356 L 238.701 128.101 233.378 128.101 L 228.056 128.101 228.056 120.704 L 228.056 113.306 234.641 113.306 L 241.227 113.306 241.227 110.961 L 241.227 108.615 232.025 108.615 L 222.824 108.615 222.824 130.627 M245.377 130.627 L 245.377 152.639 247.631 152.639 L 249.885 152.639 249.931 135.909 L 249.977 119.180 253.199 134.692 C 254.971 143.223,256.543 150.753,256.693 151.426 L 256.965 152.649 259.412 152.599 L 261.859 152.548 265.210 135.578 L 268.561 118.608 268.607 135.623 L 268.653 152.639 271.088 152.639 L 273.523 152.639 273.523 130.623 L 273.523 108.608 269.963 108.657 L 266.403 108.705 262.971 125.981 L 259.540 143.256 256.035 126.161 C 254.107 116.759,252.495 108.965,252.452 108.841 C 252.394 108.671,251.513 108.615,248.876 108.615 L 245.377 108.615 245.377 130.627 M278.214 130.627 L 278.214 152.639 280.830 152.639 L 283.446 152.639 283.446 143.978 L 283.446 135.318 286.665 135.318 C 292.469 135.318,295.181 134.048,296.810 130.566 C 298.632 126.674,298.299 115.588,296.266 112.419 C 294.198 109.197,292.336 108.623,283.942 108.618 L 278.214 108.615 278.214 130.627 M301.531 126.613 C 301.599 147.561,301.557 147.147,303.886 150.090 C 307.052 154.091,315.045 154.337,318.632 150.544 C 321.338 147.683,321.335 147.705,321.335 126.395 L 321.335 108.615 318.995 108.615 L 316.654 108.615 316.604 126.522 L 316.554 144.429 316.161 145.387 C 314.712 148.922,309.692 149.714,307.716 146.720 C 306.566 144.977,306.636 146.215,306.580 126.522 L 306.529 108.615 304.000 108.615 L 301.472 108.615 301.531 126.613 M326.026 130.627 L 326.026 152.639 328.642 152.639 L 331.258 152.639 331.258 143.257 L 331.258 133.875 332.927 133.878 C 339.911 133.893,340.676 134.888,340.827 144.159 C 340.914 149.459,340.978 150.551,341.260 151.511 L 341.590 152.639 344.202 152.639 C 346.619 152.639,346.804 152.615,346.682 152.323 C 346.060 150.825,346.010 150.297,345.882 143.888 C 345.709 135.189,345.124 133.460,341.807 131.848 C 340.798 131.359,340.797 131.366,342.002 130.736 C 345.017 129.161,345.970 126.417,345.823 119.742 C 345.710 114.609,345.248 112.924,343.445 111.069 C 341.421 108.986,339.674 108.615,331.898 108.615 L 326.026 108.615 326.026 130.627 M357.795 109.562 C 357.689 110.083,355.813 119.887,353.626 131.349 C 351.439 142.810,349.614 152.289,349.571 152.413 C 349.511 152.586,350.050 152.639,351.888 152.639 L 354.283 152.639 354.962 149.075 C 355.335 147.115,355.723 145.126,355.824 144.655 L 356.006 143.798 361.453 143.798 L 366.900 143.798 367.688 147.993 C 368.121 150.300,368.513 152.289,368.560 152.413 C 368.741 152.894,373.716 152.716,373.620 152.233 C 373.576 152.009,371.678 142.104,369.404 130.221 L 365.268 108.616 361.628 108.616 L 357.987 108.615 357.795 109.562 M87.325 110.703 C 86.636 112.042,85.252 112.630,83.579 112.295 C 83.034 112.186,81.912 111.310,81.912 110.993 C 81.912 110.900,81.791 110.723,81.642 110.600 C 81.220 110.250,81.289 111.056,81.745 111.793 C 83.270 114.261,88.051 113.260,87.652 110.557 C 87.601 110.214,87.570 110.228,87.325 110.703 M72.040 113.261 C 72.210 114.565,73.419 116.915,73.920 116.915 C 74.049 116.915,74.154 116.996,74.154 117.095 C 74.154 117.371,75.910 117.310,76.482 117.014 C 77.328 116.577,78.014 115.358,78.394 113.622 L 78.620 112.585 75.286 112.585 L 71.951 112.585 72.040 113.261 M167.484 113.498 C 169.519 114.063,170.192 115.566,170.286 119.756 C 170.425 125.940,169.465 127.049,163.870 127.168 L 160.938 127.230 160.938 120.268 L 160.938 113.306 163.870 113.307 C 165.483 113.308,167.109 113.393,167.484 113.498 M290.436 113.750 C 292.501 114.712,292.919 116.127,292.916 122.147 C 292.912 129.744,292.230 130.657,286.468 130.779 L 283.446 130.844 283.446 122.075 L 283.446 113.306 286.468 113.308 C 289.291 113.310,289.553 113.339,290.436 113.750 M337.956 113.585 C 340.288 114.407,340.731 115.632,340.731 121.258 L 340.731 125.691 340.187 126.755 C 339.221 128.644,337.362 129.355,333.378 129.361 L 331.258 129.364 331.258 121.335 L 331.258 113.306 334.213 113.306 C 336.414 113.306,337.368 113.377,337.956 113.585 M103.981 115.075 C 104.247 115.354,104.465 115.668,104.465 115.775 C 104.465 115.881,104.580 116.064,104.720 116.180 C 105.275 116.640,105.205 119.621,104.639 119.621 C 104.544 119.621,104.465 119.701,104.465 119.798 C 104.465 120.419,100.950 122.869,100.059 122.869 C 99.942 122.869,99.770 122.944,99.675 123.037 C 99.480 123.228,98.183 123.719,97.255 123.953 C 96.829 124.061,96.541 124.044,96.353 123.899 C 96.108 123.711,96.108 123.728,96.355 124.045 C 96.509 124.241,96.791 124.707,96.983 125.079 C 97.369 125.831,97.485 125.864,98.463 125.507 C 98.837 125.370,99.501 125.149,99.939 125.017 C 106.465 123.045,109.269 117.201,104.788 114.911 C 103.749 114.380,103.385 114.454,103.981 115.075 M363.738 127.038 C 365.025 133.626,366.079 139.118,366.079 139.242 C 366.080 139.495,356.702 139.585,356.694 139.332 C 356.686 139.064,361.297 114.958,361.347 115.008 C 361.375 115.036,362.451 120.449,363.738 127.038 M71.989 115.163 C 71.989 115.375,72.597 116.815,72.793 117.068 C 74.441 119.191,76.683 118.974,77.988 116.566 C 78.589 115.457,78.247 115.480,77.532 116.597 C 77.162 117.175,75.997 117.817,75.316 117.817 C 74.411 117.817,72.543 116.556,72.525 115.933 C 72.518 115.726,71.989 114.964,71.989 115.163 M54.353 128.913 C 54.355 129.310,54.392 129.451,54.435 129.227 C 54.478 129.002,54.477 128.677,54.432 128.505 C 54.386 128.332,54.351 128.516,54.353 128.913 M94.993 132.125 C 93.713 133.487,92.215 134.300,90.112 134.772 L 89.200 134.976 89.276 136.579 C 89.383 138.817,88.257 140.903,86.635 141.468 L 86.111 141.651 86.374 142.409 C 87.176 144.719,85.389 147.221,82.241 148.197 L 81.217 148.514 81.217 149.453 C 81.217 152.461,79.074 154.520,75.964 154.500 L 74.580 154.491 74.357 155.324 C 73.585 158.203,71.883 159.961,68.832 161.028 C 68.038 161.306,67.369 161.547,67.345 161.565 C 67.307 161.592,67.845 163.099,67.946 163.251 C 68.021 163.362,70.282 162.873,70.907 162.610 C 72.507 161.937,72.905 161.650,74.419 160.081 C 75.076 159.401,75.469 159.134,75.817 159.134 C 79.542 159.134,83.135 156.100,83.626 152.542 C 83.914 150.454,84.259 149.932,85.353 149.932 C 85.549 149.932,86.229 149.679,86.865 149.369 C 91.065 147.321,92.660 142.331,90.400 138.308 C 89.790 137.222,89.898 136.959,91.236 136.268 C 92.437 135.648,92.748 135.442,93.354 134.867 C 94.103 134.155,95.083 132.884,95.083 132.624 C 95.083 132.511,95.215 132.218,95.375 131.974 C 95.763 131.382,95.649 131.427,94.993 132.125 M168.046 132.338 C 170.429 133.215,171.042 134.787,171.042 140.019 C 171.042 147.088,170.285 147.986,164.231 148.100 L 160.938 148.163 160.938 140.008 L 160.938 131.854 164.051 131.934 C 166.450 131.995,167.365 132.088,168.046 132.338 M85.815 134.557 C 86.678 136.527,86.587 137.917,85.506 139.285 C 84.667 140.347,84.926 140.484,86.093 139.595 C 87.797 138.298,87.998 136.328,86.596 134.662 C 85.851 133.776,85.449 133.722,85.815 134.557 M78.304 148.173 C 78.304 150.272,77.045 152.053,75.327 152.385 L 74.605 152.524 75.237 152.667 C 77.988 153.289,80.286 150.529,79.099 148.028 C 78.532 146.833,78.304 146.875,78.304 148.173 M61.031 158.722 C 61.305 158.764,61.711 158.763,61.933 158.720 C 62.155 158.677,61.931 158.643,61.434 158.644 C 60.938 158.646,60.757 158.681,61.031 158.722 M61.028 160.521 C 61.202 160.567,61.486 160.567,61.660 160.521 C 61.834 160.476,61.691 160.439,61.344 160.439 C 60.997 160.439,60.855 160.476,61.028 160.521 M65.897 163.825 C 65.897 164.172,65.934 164.314,65.979 164.141 C 66.025 163.967,66.025 163.683,65.979 163.509 C 65.934 163.336,65.897 163.478,65.897 163.825 M62.517 172.598 C 62.192 172.874,62.126 172.984,62.351 172.872 C 62.682 172.708,63.302 172.114,63.125 172.131 C 63.088 172.135,62.815 172.345,62.517 172.598 " stroke="none" fill="#cb4c2c" fill-rule="evenodd"></path><path id="path1" d="M73.433 90.028 C 71.656 90.203,69.364 90.792,68.985 91.171 C 68.917 91.239,68.731 91.295,68.570 91.295 C 68.288 91.295,67.585 91.771,66.906 92.422 C 66.725 92.596,66.536 92.738,66.488 92.738 C 66.262 92.738,63.148 96.050,63.148 96.291 C 63.148 96.342,62.925 96.681,62.652 97.043 C 62.067 97.820,61.745 98.320,61.591 98.692 C 61.529 98.841,61.246 99.470,60.960 100.091 C 60.675 100.711,60.442 101.336,60.442 101.480 C 60.442 101.624,60.320 102.209,60.171 102.781 C 59.639 104.825,59.977 108.333,60.954 110.916 L 61.313 111.863 60.472 111.869 C 58.805 111.882,56.698 112.587,55.788 113.437 C 54.180 114.938,54.317 118.019,56.034 118.961 C 56.424 119.175,56.770 119.411,56.803 119.486 C 56.837 119.560,57.001 119.621,57.169 119.621 C 57.337 119.621,57.654 119.747,57.873 119.900 C 58.182 120.116,58.354 120.134,58.644 119.978 C 59.498 119.521,60.806 119.264,62.283 119.262 C 65.587 119.258,68.000 120.389,70.079 122.917 C 70.620 123.574,70.694 123.584,71.719 123.141 C 73.766 122.257,76.743 122.300,79.140 123.249 C 79.669 123.459,79.737 123.439,80.179 122.946 C 81.205 121.799,82.004 121.065,82.223 121.065 C 82.350 121.065,82.454 121.000,82.454 120.921 C 82.454 120.711,84.754 119.685,85.736 119.457 C 87.229 119.110,89.488 119.210,90.892 119.685 L 92.147 120.110 93.181 119.595 C 95.953 118.215,96.584 117.321,96.268 115.218 C 95.992 113.378,93.401 111.863,90.528 111.863 C 89.716 111.863,89.722 111.975,90.420 109.968 C 92.447 104.132,89.838 96.700,84.302 92.543 C 83.732 92.115,83.184 91.680,83.085 91.575 C 82.986 91.470,82.580 91.278,82.183 91.148 C 81.786 91.018,81.177 90.804,80.830 90.673 C 79.213 90.062,75.962 89.778,73.433 90.028 M67.912 102.126 C 69.250 102.762,69.824 103.405,69.824 104.267 C 69.824 105.216,69.287 105.439,68.652 104.754 C 67.070 103.047,65.108 103.047,62.871 104.754 C 62.260 105.220,62.226 105.225,61.882 104.913 C 60.036 103.243,65.221 100.846,67.912 102.126 M86.661 101.958 C 87.888 102.428,89.168 103.597,89.072 104.161 C 88.874 105.323,88.573 105.429,87.710 104.641 C 86.024 103.102,84.315 103.042,82.454 104.459 C 81.495 105.189,81.377 105.236,81.093 105.000 C 79.290 103.504,83.990 100.936,86.661 101.958 M67.105 106.266 C 69.979 107.090,70.041 112.317,67.187 113.110 C 64.635 113.818,62.788 112.304,62.788 109.504 C 62.788 107.119,64.805 105.606,67.105 106.266 M85.368 106.202 C 88.601 106.737,88.472 112.742,85.218 113.230 C 82.753 113.600,81.371 112.331,81.371 109.698 C 81.371 106.971,82.746 105.769,85.368 106.202 M78.932 113.351 C 78.382 118.149,75.104 120.136,72.799 117.068 C 72.310 116.417,71.448 113.690,71.448 112.794 L 71.448 112.224 75.255 112.224 L 79.061 112.224 78.932 113.351 M68.824 114.021 C 69.694 114.505,69.667 115.180,68.760 115.642 C 66.605 116.742,61.971 115.721,63.019 114.378 C 63.667 113.547,67.543 113.309,68.824 114.021 M86.898 113.875 C 87.778 114.097,88.264 114.750,87.842 115.144 C 86.185 116.696,80.766 116.191,81.292 114.533 C 81.564 113.677,84.667 113.313,86.898 113.875 M45.563 114.980 C 44.524 115.569,44.197 117.784,45.027 118.614 C 45.169 118.757,45.286 118.919,45.286 118.975 C 45.286 119.730,48.234 121.760,51.331 123.138 C 53.859 124.263,53.902 124.272,54.120 123.700 C 54.215 123.449,54.739 122.802,55.283 122.262 L 56.272 121.280 55.741 121.060 C 55.449 120.939,55.210 120.789,55.210 120.726 C 55.210 120.663,54.986 120.512,54.714 120.390 C 53.893 120.024,51.060 117.130,51.060 116.658 C 51.060 116.388,49.872 115.273,49.227 114.936 C 48.229 114.416,46.523 114.437,45.563 114.980 M100.939 115.095 C 100.415 115.395,99.801 115.951,99.495 116.401 C 99.202 116.833,98.902 117.212,98.827 117.246 C 98.753 117.279,98.692 117.393,98.692 117.499 C 98.692 117.857,96.247 120.065,95.129 120.718 C 94.061 121.342,93.949 121.967,94.905 121.967 C 95.003 121.967,95.083 122.088,95.083 122.237 C 95.083 122.386,95.161 122.508,95.255 122.508 C 95.350 122.508,95.679 122.874,95.986 123.321 C 96.649 124.285,96.898 124.272,99.504 123.142 C 99.802 123.013,100.329 122.804,100.677 122.677 C 101.024 122.551,101.410 122.369,101.536 122.273 C 101.661 122.178,101.999 121.968,102.288 121.808 C 102.940 121.445,104.465 120.037,104.465 119.798 C 104.465 119.701,104.544 119.621,104.639 119.621 C 105.205 119.621,105.275 116.640,104.720 116.180 C 104.580 116.064,104.465 115.872,104.465 115.754 C 104.465 114.621,102.429 114.240,100.939 115.095 M60.194 123.334 C 58.194 123.879,56.178 125.588,55.177 127.587 C 53.815 130.306,54.801 133.019,58.164 135.801 C 58.641 136.196,58.792 136.825,58.457 137.032 C 58.151 137.221,58.236 141.455,58.568 142.559 C 58.939 143.794,59.584 145.241,59.763 145.241 C 59.839 145.241,59.901 145.322,59.901 145.420 C 59.901 145.927,61.746 147.394,62.837 147.754 C 64.685 148.364,64.761 149.528,63.131 152.259 C 62.283 153.681,61.921 155.531,62.246 156.788 C 62.362 157.235,62.498 157.814,62.549 158.076 C 62.630 158.488,62.756 158.566,63.506 158.665 C 64.899 158.850,66.251 159.748,67.163 161.095 L 67.453 161.523 68.864 161.023 C 70.924 160.293,71.932 159.590,72.994 158.142 C 74.485 156.107,74.852 154.135,73.748 154.088 C 73.674 154.085,73.613 153.796,73.613 153.447 C 73.613 152.724,73.877 152.552,75.259 152.371 C 77.193 152.119,78.419 150.160,78.252 147.589 C 78.068 144.749,79.860 144.687,80.907 147.497 C 81.091 147.993,81.258 148.419,81.276 148.443 C 81.325 148.508,82.982 147.959,83.679 147.648 C 85.603 146.788,86.919 144.376,86.438 142.590 L 86.247 141.880 85.162 141.959 C 83.938 142.047,83.536 141.844,83.536 141.134 C 83.536 140.644,83.978 140.204,84.479 140.195 C 86.448 140.159,86.961 134.589,85.075 133.730 C 83.815 133.155,84.837 131.622,86.164 132.096 C 86.885 132.354,88.767 133.943,88.771 134.299 C 88.779 134.899,89.067 135.008,90.056 134.785 C 93.236 134.069,95.393 132.452,95.753 130.515 C 95.870 129.885,95.884 129.385,95.787 129.283 C 95.698 129.189,95.625 128.972,95.625 128.802 C 95.625 127.924,93.167 124.493,92.538 124.493 C 92.464 124.493,92.294 124.391,92.162 124.267 C 89.477 121.756,83.041 123.301,81.090 126.925 C 80.675 127.696,80.055 127.764,78.834 127.172 C 76.436 126.009,74.041 126.040,71.448 127.267 C 70.173 127.870,69.875 127.860,69.500 127.200 C 69.331 126.903,69.132 126.659,69.057 126.659 C 68.983 126.658,68.922 126.560,68.922 126.440 C 68.922 126.320,68.513 125.831,68.012 125.354 C 65.959 123.395,62.884 122.600,60.194 123.334 M68.032 131.535 C 68.632 131.857,68.352 133.153,67.682 133.153 C 67.277 133.153,66.512 133.998,65.934 135.084 C 65.203 136.459,65.379 137.517,66.525 138.647 C 67.676 139.782,67.755 140.546,66.871 141.978 C 65.864 143.610,66.076 145.261,67.382 145.960 C 68.524 146.571,67.696 147.960,66.409 147.591 C 64.014 146.904,62.346 143.411,63.355 141.196 C 63.532 140.808,63.498 140.658,63.117 140.151 C 60.928 137.235,62.223 132.877,65.654 131.614 C 66.451 131.321,67.562 131.284,68.032 131.535 " stroke="none" fill="#fb8b44" fill-rule="evenodd"></path><path id="path2" d="M72.621 88.051 C 71.647 88.172,70.662 88.408,68.988 88.919 C 68.677 89.015,67.715 89.446,66.850 89.878 C 64.589 91.008,64.592 91.006,64.592 91.157 C 64.592 91.233,64.470 91.295,64.321 91.295 C 64.172 91.295,64.051 91.358,64.051 91.436 C 64.051 91.514,63.803 91.724,63.500 91.903 C 62.110 92.724,59.417 95.809,58.284 97.880 C 57.958 98.475,57.620 99.040,57.533 99.134 C 57.446 99.228,57.375 99.487,57.375 99.710 C 57.375 99.932,57.303 100.158,57.216 100.212 C 56.723 100.517,55.751 105.069,55.751 107.073 L 55.751 108.540 54.649 109.046 C 52.936 109.832,51.675 111.259,51.002 113.171 C 50.889 113.493,50.519 113.615,50.519 113.330 C 50.519 112.747,46.113 112.457,45.016 112.968 C 40.994 114.840,40.155 119.668,43.295 122.876 C 43.873 123.467,44.395 123.951,44.454 123.951 C 44.514 123.951,44.770 124.134,45.025 124.357 C 45.567 124.833,46.562 125.452,47.452 125.867 C 47.799 126.030,48.286 126.264,48.534 126.389 C 49.262 126.754,51.789 127.560,52.208 127.560 C 52.575 127.561,52.594 127.648,52.609 129.350 C 52.625 131.078,53.027 133.009,53.422 133.253 C 53.512 133.309,53.586 133.512,53.586 133.705 C 53.586 133.897,53.662 134.055,53.754 134.055 C 53.847 134.055,53.971 134.208,54.031 134.396 C 54.090 134.583,54.617 135.231,55.202 135.837 C 55.787 136.442,56.189 136.984,56.096 137.042 C 56.002 137.100,55.799 137.446,55.644 137.811 C 53.887 141.943,54.527 146.084,57.380 149.046 C 58.360 150.064,58.411 150.200,58.091 150.925 C 57.362 152.578,57.143 155.546,57.645 156.969 C 57.794 157.391,57.916 157.755,57.916 157.779 C 57.916 157.803,57.367 157.784,56.696 157.736 C 53.689 157.520,51.191 160.423,51.970 163.228 C 52.260 164.273,53.045 165.629,53.359 165.629 C 53.484 165.629,53.586 165.709,53.586 165.807 C 53.586 166.235,54.955 166.595,56.606 166.602 L 58.272 166.609 57.688 167.243 C 57.367 167.592,57.061 167.919,57.009 167.971 C 55.565 169.396,56.273 173.034,58.278 174.495 C 60.093 175.817,63.744 175.067,64.656 173.184 C 64.722 173.048,64.932 172.693,65.123 172.395 C 65.314 172.097,65.644 171.488,65.856 171.042 C 66.068 170.595,66.324 170.077,66.425 169.891 C 66.605 169.559,66.828 168.823,67.416 166.622 C 67.775 165.276,67.922 165.090,68.628 165.082 C 70.637 165.059,73.547 163.725,75.190 162.074 C 76.097 161.162,76.432 160.938,76.885 160.938 C 77.521 160.938,78.652 160.655,79.504 160.284 C 79.817 160.148,80.134 160.036,80.209 160.036 C 80.284 160.036,80.611 159.833,80.936 159.585 C 81.261 159.337,81.614 159.134,81.720 159.134 C 81.826 159.134,81.913 159.073,81.913 158.999 C 81.913 158.924,82.157 158.701,82.454 158.502 C 82.751 158.304,82.994 158.084,82.995 158.015 C 82.995 157.945,83.185 157.698,83.416 157.466 C 84.384 156.498,85.690 153.555,85.698 152.323 C 85.701 151.871,85.779 151.737,86.040 151.737 C 86.226 151.737,86.845 151.530,87.415 151.278 C 92.226 149.150,94.671 143.187,92.615 138.596 C 92.467 138.266,92.373 137.971,92.407 137.941 C 92.440 137.911,92.881 137.635,93.386 137.326 C 96.083 135.680,97.773 132.618,97.784 129.356 L 97.790 127.634 98.915 127.385 C 101.927 126.716,106.668 123.875,107.839 122.035 C 109.050 120.134,109.296 117.582,108.425 115.942 C 108.183 115.485,107.923 115.111,107.849 115.111 C 107.774 115.111,107.713 115.029,107.713 114.930 C 107.713 113.227,102.610 111.997,100.258 113.133 C 99.855 113.328,99.505 113.487,99.478 113.487 C 99.452 113.487,99.377 113.205,99.313 112.862 C 99.248 112.518,99.082 112.143,98.944 112.028 C 98.805 111.913,98.692 111.712,98.692 111.582 C 98.692 111.194,97.039 109.638,96.174 109.211 C 95.395 108.827,95.372 108.791,95.410 108.039 C 95.457 107.113,95.020 103.626,94.713 102.481 C 94.530 101.800,94.215 100.945,93.384 98.872 C 93.324 98.724,93.117 98.358,92.924 98.060 C 92.731 97.763,92.441 97.259,92.278 96.941 C 92.116 96.623,91.869 96.268,91.729 96.152 C 91.589 96.036,91.475 95.866,91.475 95.775 C 91.475 95.683,91.110 95.237,90.663 94.784 C 90.217 94.331,89.851 93.888,89.851 93.800 C 89.851 93.712,89.790 93.638,89.716 93.635 C 89.641 93.632,89.211 93.287,88.760 92.868 C 88.308 92.449,87.456 91.782,86.865 91.385 C 86.275 90.988,85.751 90.618,85.701 90.563 C 85.612 90.465,85.327 90.328,83.343 89.425 C 80.440 88.105,76.372 87.583,72.621 88.051 M79.747 90.292 C 83.517 91.253,87.148 93.566,89.416 96.450 C 89.705 96.817,90.025 97.208,90.128 97.319 C 90.774 98.012,91.857 100.181,92.436 101.940 C 93.265 104.461,93.642 108.297,93.220 109.923 C 93.115 110.331,93.151 110.419,93.424 110.419 C 96.314 110.419,98.814 114.396,97.203 116.431 C 96.422 117.419,95.474 118.358,95.258 118.358 C 95.162 118.358,95.083 118.439,95.083 118.539 C 95.083 118.638,94.962 118.719,94.813 118.719 C 94.664 118.719,94.542 118.783,94.542 118.862 C 94.542 119.204,91.989 120.232,91.656 120.024 C 88.559 118.090,82.469 119.785,80.037 123.258 C 79.786 123.615,79.751 123.619,79.181 123.334 C 77.126 122.309,73.462 122.322,71.320 123.362 L 70.561 123.731 70.275 123.294 C 69.871 122.678,68.241 121.065,68.022 121.065 C 67.922 121.065,67.839 120.994,67.839 120.908 C 67.839 120.701,65.839 119.833,64.628 119.513 C 62.870 119.049,60.623 119.211,58.965 119.922 C 57.350 120.614,52.684 117.056,52.684 115.133 C 52.684 112.682,54.859 110.419,57.217 110.419 L 57.828 110.419 57.836 107.578 C 57.846 103.549,58.701 100.567,60.663 97.709 C 61.072 97.114,62.759 95.113,63.145 94.764 C 63.395 94.539,63.762 94.210,63.960 94.033 C 64.159 93.855,64.727 93.431,65.223 93.089 C 65.719 92.747,66.166 92.426,66.216 92.375 C 66.315 92.273,68.263 91.337,68.832 91.116 C 70.307 90.546,70.752 90.405,71.628 90.229 C 72.174 90.119,72.905 89.996,73.252 89.956 C 74.452 89.817,78.758 90.040,79.747 90.292 M64.394 101.987 C 63.444 102.255,61.805 103.406,61.741 103.850 C 61.628 104.645,62.168 104.735,63.100 104.076 C 64.330 103.206,64.836 103.022,65.999 103.023 C 67.057 103.024,67.360 103.155,68.610 104.153 C 69.793 105.098,70.330 104.120,69.209 103.062 C 67.976 101.900,66.152 101.492,64.394 101.987 M83.086 102.212 C 82.491 102.457,81.977 102.739,81.943 102.840 C 81.910 102.940,81.805 103.022,81.709 103.022 C 81.374 103.022,80.798 103.715,80.861 104.043 C 80.962 104.575,81.669 104.544,82.411 103.974 C 84.278 102.542,86.150 102.647,87.907 104.284 C 88.823 105.138,89.351 104.101,88.475 103.167 C 87.189 101.796,85.029 101.414,83.086 102.212 M65.404 106.216 C 62.977 106.745,62.103 109.735,63.861 111.493 C 65.478 113.110,68.198 112.486,69.031 110.306 C 69.884 108.072,67.779 105.697,65.404 106.216 M83.897 106.212 C 81.999 106.518,80.421 109.587,81.642 110.600 C 81.791 110.723,81.912 110.900,81.912 110.993 C 81.912 112.356,85.376 112.823,86.624 111.628 C 88.958 109.395,87.096 105.697,83.897 106.212 M64.773 107.353 C 64.999 107.474,65.148 107.474,65.223 107.353 C 65.412 107.047,65.674 107.152,65.674 107.533 C 65.674 107.731,65.593 107.894,65.494 107.894 C 65.395 107.894,65.313 108.078,65.313 108.304 C 65.313 109.338,64.113 109.947,63.678 109.134 C 63.186 108.215,63.977 106.927,64.773 107.353 M83.351 107.346 C 83.522 107.454,83.660 107.444,83.737 107.320 C 83.908 107.042,84.262 107.312,84.141 107.628 C 84.085 107.773,83.958 107.841,83.859 107.780 C 83.748 107.711,83.723 107.809,83.793 108.031 C 84.066 108.891,83.014 109.843,82.291 109.390 C 81.772 109.066,81.824 107.990,82.378 107.553 C 82.925 107.123,82.981 107.111,83.351 107.346 M71.448 112.651 C 71.448 113.155,72.015 114.961,72.426 115.764 C 73.567 117.995,76.352 118.449,77.530 116.597 C 77.703 116.325,77.901 116.061,77.970 116.011 C 78.240 115.812,78.802 114.068,78.885 113.171 L 78.973 112.224 75.210 112.224 L 71.448 112.224 71.448 112.651 M78.394 113.622 C 78.014 115.358,77.328 116.577,76.482 117.014 C 75.910 117.310,74.154 117.371,74.154 117.095 C 74.154 116.996,74.049 116.915,73.920 116.915 C 73.419 116.915,72.210 114.565,72.040 113.261 L 71.951 112.585 75.286 112.585 L 78.620 112.585 78.394 113.622 M49.526 115.070 C 50.237 115.510,51.041 116.322,51.054 116.612 C 51.057 116.693,51.161 116.868,51.286 117.000 C 51.410 117.132,51.836 117.631,52.233 118.108 C 52.630 118.585,53.109 119.100,53.297 119.253 C 53.486 119.406,53.790 119.673,53.974 119.847 C 54.157 120.020,54.343 120.162,54.386 120.162 C 54.559 120.162,56.292 121.307,56.292 121.422 C 56.292 121.489,56.101 121.647,55.867 121.772 C 55.360 122.044,54.346 123.367,53.643 124.675 C 53.034 125.807,52.891 125.878,51.910 125.530 C 51.492 125.382,50.792 125.152,50.354 125.019 C 47.609 124.183,43.998 121.453,43.518 119.851 C 42.410 116.152,46.290 113.065,49.526 115.070 M104.826 114.933 C 109.274 117.190,106.431 123.055,99.939 125.017 C 99.501 125.149,98.837 125.370,98.463 125.507 C 97.468 125.871,97.352 125.832,96.913 124.989 C 96.179 123.580,95.834 123.107,94.763 122.038 L 93.992 121.269 94.493 120.991 C 94.768 120.838,95.135 120.661,95.309 120.597 C 95.483 120.533,95.625 120.409,95.625 120.322 C 95.625 120.234,95.705 120.162,95.804 120.162 C 96.264 120.162,99.233 117.129,99.233 116.658 C 99.233 116.426,100.423 115.245,100.947 114.957 C 102.062 114.344,103.647 114.334,104.826 114.933 M64.688 121.439 C 66.737 122.152,68.095 123.196,69.340 125.014 C 69.845 125.752,70.705 126.047,70.994 125.580 C 71.903 124.110,77.799 124.052,79.401 125.498 C 80.019 126.057,80.514 125.838,81.270 124.673 C 82.290 123.100,83.494 122.226,85.840 121.351 C 87.565 120.709,90.908 121.267,92.544 122.471 C 93.368 123.077,94.530 124.335,94.537 124.628 C 94.540 124.752,94.604 124.853,94.680 124.853 C 94.855 124.853,95.520 126.334,95.784 127.310 C 96.157 128.686,95.848 131.559,95.265 132.142 C 95.165 132.241,95.083 132.437,95.083 132.577 C 95.083 132.877,94.157 134.104,93.354 134.867 C 92.748 135.442,92.437 135.648,91.236 136.268 C 89.898 136.959,89.790 137.222,90.400 138.308 C 92.660 142.331,91.065 147.321,86.865 149.369 C 86.229 149.679,85.549 149.932,85.353 149.932 C 84.259 149.932,83.914 150.454,83.626 152.542 C 83.135 156.100,79.542 159.134,75.817 159.134 C 75.469 159.134,75.076 159.401,74.419 160.081 C 72.905 161.650,72.507 161.937,70.907 162.610 C 70.281 162.873,68.022 163.362,67.944 163.251 C 67.922 163.219,67.726 162.717,67.509 162.134 C 66.638 159.803,65.015 158.668,62.630 158.723 C 60.272 158.778,60.184 158.742,59.743 157.533 C 58.999 155.492,59.301 152.099,60.362 150.584 C 60.756 150.023,60.676 149.434,60.145 148.984 C 57.266 146.543,56.180 143.963,56.721 140.851 C 56.856 140.077,57.058 139.351,57.171 139.239 C 57.283 139.127,57.375 138.929,57.375 138.801 C 57.375 138.672,57.665 138.162,58.020 137.669 C 58.791 136.596,58.744 136.291,57.681 135.469 C 50.629 130.012,56.359 118.540,64.688 121.439 M65.855 131.594 C 65.028 131.866,63.872 132.644,63.419 133.234 C 63.221 133.492,62.977 133.803,62.878 133.924 C 61.671 135.403,62.006 139.395,63.428 140.481 C 63.659 140.657,63.658 140.763,63.420 141.332 C 63.053 142.211,63.076 143.777,63.470 144.657 C 63.913 145.647,64.640 146.682,64.892 146.683 C 65.008 146.684,65.130 146.746,65.163 146.820 C 65.289 147.103,66.384 147.587,66.898 147.587 C 68.082 147.587,68.170 146.435,67.028 145.888 C 65.206 145.016,64.240 142.238,65.418 141.260 C 65.869 140.886,65.696 140.295,64.873 139.399 C 62.804 137.146,64.333 133.153,67.264 133.153 C 67.813 133.153,68.381 132.678,68.381 132.219 C 68.381 131.447,67.194 131.154,65.855 131.594 M84.907 132.306 C 84.372 132.697,84.607 133.372,85.421 133.784 C 87.898 135.040,88.236 137.964,86.093 139.595 C 85.664 139.922,85.113 140.189,84.869 140.189 C 83.808 140.189,83.204 141.096,83.866 141.695 C 85.001 142.722,87.817 141.238,88.949 139.017 C 90.428 136.116,87.147 130.668,84.907 132.306 M78.484 145.783 C 77.998 146.270,78.026 146.481,78.703 147.402 C 80.632 150.024,78.365 153.360,75.145 152.638 C 74.097 152.403,73.613 152.627,73.613 153.346 C 73.613 155.276,78.331 154.830,80.149 152.729 C 81.772 150.853,81.327 146.489,79.423 145.613 C 78.886 145.365,78.905 145.362,78.484 145.783 M58.818 160.105 C 59.562 160.265,60.790 160.397,61.547 160.397 C 64.929 160.397,66.398 161.947,65.850 164.936 C 65.511 166.789,63.834 171.365,63.348 171.764 C 63.288 171.813,63.152 172.016,63.046 172.215 C 62.410 173.404,58.818 173.539,58.818 172.375 C 58.818 172.237,58.740 172.124,58.645 172.124 C 58.321 172.124,58.079 170.752,58.260 169.944 C 58.390 169.368,58.689 168.932,59.482 168.160 C 60.584 167.087,61.404 166.161,61.595 165.771 C 61.657 165.643,61.876 165.261,62.081 164.921 C 62.831 163.681,61.924 163.003,60.518 163.753 C 58.551 164.803,55.864 165.089,54.836 164.357 C 53.277 163.247,53.427 160.991,55.131 159.903 C 55.559 159.630,56.976 159.708,58.818 160.105 " stroke="none" fill="#440404" fill-rule="evenodd"></path><path id="path3" d="M65.779 92.775 C 60.487 96.335,57.904 101.210,57.889 107.668 L 57.882 110.419 57.334 110.419 C 56.705 110.419,55.421 110.771,55.045 111.045 C 52.957 112.572,52.117 114.951,53.170 116.356 C 54.487 118.114,55.440 118.772,54.941 117.580 C 53.702 114.612,56.327 111.901,60.472 111.869 L 61.313 111.863 60.954 110.916 C 59.977 108.333,59.639 104.825,60.171 102.781 C 60.320 102.209,60.442 101.624,60.442 101.480 C 60.442 101.226,61.375 99.055,61.717 98.512 C 61.811 98.363,61.941 98.119,62.007 97.970 C 62.072 97.821,62.356 97.404,62.637 97.042 C 62.918 96.681,63.148 96.342,63.148 96.291 C 63.148 96.057,66.259 92.738,66.478 92.738 C 66.522 92.738,66.777 92.535,67.045 92.287 C 67.837 91.552,67.273 91.770,65.779 92.775 M63.907 107.510 C 63.551 107.730,63.443 108.832,63.739 109.228 C 64.298 109.977,65.518 109.003,65.216 108.050 C 65.142 107.819,65.198 107.713,65.392 107.713 C 65.547 107.713,65.674 107.642,65.674 107.556 C 65.674 107.357,64.216 107.319,63.907 107.510 M82.193 107.753 C 81.670 108.501,82.056 109.517,82.864 109.517 C 83.520 109.517,83.995 108.063,83.500 107.569 C 83.156 107.224,82.499 107.317,82.193 107.753 M65.043 113.681 C 62.847 113.892,62.178 114.684,63.461 115.555 C 64.993 116.596,69.574 116.017,69.429 114.800 C 69.318 113.867,67.618 113.434,65.043 113.681 M83.536 113.674 C 81.090 113.898,80.358 114.961,82.142 115.697 C 84.384 116.620,88.542 115.741,87.870 114.485 C 87.507 113.807,85.725 113.474,83.536 113.674 M44.148 116.148 C 42.408 118.673,43.919 121.914,47.675 123.718 C 48.046 123.896,48.350 124.102,48.352 124.177 C 48.353 124.251,48.498 124.312,48.674 124.312 C 48.851 124.312,49.155 124.419,49.351 124.549 C 49.547 124.679,50.072 124.892,50.519 125.023 C 50.965 125.154,51.678 125.384,52.103 125.535 C 52.829 125.792,52.891 125.788,53.133 125.466 C 53.643 124.789,53.786 124.126,53.444 124.017 C 52.752 123.797,50.596 122.833,49.166 122.105 C 47.459 121.236,45.286 119.440,45.286 118.898 C 45.286 118.800,45.208 118.719,45.113 118.719 C 44.815 118.719,44.523 117.236,44.643 116.333 C 44.781 115.295,44.745 115.281,44.148 116.148 M61.254 121.154 C 61.155 121.187,60.515 121.388,59.831 121.601 C 58.425 122.038,57.238 122.866,56.247 124.101 C 55.875 124.564,55.489 125.042,55.390 125.162 C 55.291 125.281,55.210 125.452,55.210 125.540 C 55.210 125.628,55.090 125.940,54.944 126.233 C 54.797 126.527,54.636 127.371,54.586 128.110 C 54.529 128.952,54.549 129.252,54.640 128.912 C 55.726 124.862,60.331 122.195,64.321 123.304 C 66.176 123.820,68.922 125.691,68.922 126.440 C 68.922 126.560,68.983 126.658,69.057 126.659 C 69.132 126.659,69.331 126.903,69.500 127.200 C 69.875 127.860,70.173 127.870,71.448 127.267 C 74.041 126.040,76.436 126.009,78.834 127.172 C 80.055 127.764,80.675 127.696,81.090 126.925 C 83.041 123.301,89.477 121.756,92.162 124.267 C 92.294 124.391,92.464 124.493,92.538 124.493 C 93.179 124.493,95.625 127.928,95.625 128.828 C 95.625 129.012,95.706 129.212,95.805 129.274 C 96.195 129.515,95.747 126.944,95.192 125.756 C 93.124 121.323,87.540 119.764,83.501 122.490 C 82.765 122.987,81.371 124.356,81.371 124.582 C 81.371 125.567,80.194 125.924,78.938 125.321 C 76.295 124.052,74.189 124.073,71.389 125.398 C 70.113 126.002,69.784 125.936,69.214 124.963 C 67.747 122.460,63.462 120.410,61.254 121.154 M66.043 133.561 C 63.600 134.789,63.228 137.854,65.294 139.721 C 65.728 140.113,65.789 140.844,65.431 141.367 C 64.697 142.440,64.904 144.067,65.899 145.063 C 66.778 145.942,67.097 145.994,66.591 145.175 C 66.006 144.228,66.092 143.240,66.871 141.978 C 67.755 140.546,67.676 139.782,66.525 138.647 C 65.762 137.894,65.494 137.289,65.494 136.315 C 65.494 135.945,66.280 134.264,66.550 134.055 C 67.601 133.243,67.286 132.936,66.043 133.561 M58.039 137.799 C 57.958 138.022,57.831 138.205,57.757 138.205 C 57.260 138.205,56.745 140.338,56.755 142.355 C 56.769 145.238,57.457 146.563,60.158 148.909 C 60.898 149.552,60.906 150.064,60.190 150.993 C 59.410 152.005,59.109 155.393,59.651 157.059 C 60.129 158.530,60.090 158.497,61.430 158.556 L 62.651 158.610 62.553 158.105 C 62.500 157.828,62.362 157.235,62.246 156.788 C 61.921 155.531,62.283 153.681,63.131 152.259 C 64.761 149.528,64.685 148.364,62.837 147.754 C 61.746 147.394,59.901 145.927,59.901 145.420 C 59.901 145.322,59.839 145.241,59.763 145.241 C 59.616 145.241,59.029 143.990,58.621 142.806 C 58.484 142.409,58.331 141.028,58.280 139.738 C 58.219 138.214,58.135 137.535,58.039 137.799 M55.405 159.872 C 54.478 160.243,53.654 161.560,53.819 162.410 C 53.896 162.808,53.908 162.811,54.027 162.472 C 54.096 162.273,54.370 161.949,54.636 161.750 C 55.161 161.358,55.188 161.357,60.321 161.472 L 62.997 161.533 63.474 161.055 L 63.952 160.577 63.235 160.561 C 62.840 160.551,62.176 160.557,61.760 160.574 C 60.958 160.605,57.930 160.113,57.231 159.838 C 56.709 159.633,55.970 159.647,55.405 159.872 " stroke="none" fill="#fbd9c2" fill-rule="evenodd"></path><path id="path4" d="M63.478 161.052 L 62.997 161.533 60.321 161.472 C 55.203 161.357,55.159 161.359,54.655 161.742 C 53.548 162.584,53.754 163.675,55.177 164.502 C 56.075 165.023,58.812 164.624,60.393 163.740 C 61.555 163.090,62.427 163.301,62.427 164.231 C 62.427 164.576,61.850 165.626,61.660 165.628 C 61.585 165.629,61.525 165.742,61.525 165.880 C 61.525 166.018,60.794 166.880,59.901 167.794 L 58.277 169.457 58.277 170.583 C 58.277 172.016,59.012 172.925,60.332 173.123 C 62.144 173.395,62.971 172.648,64.333 169.508 C 64.506 169.111,64.756 168.571,64.890 168.308 C 65.024 168.044,65.133 167.669,65.133 167.473 C 65.133 167.277,65.248 166.841,65.389 166.505 C 66.256 164.428,65.558 160.938,64.275 160.938 C 64.168 160.938,64.053 160.856,64.019 160.755 C 63.986 160.654,63.742 160.788,63.478 161.052 " stroke="none" fill="#f16d6f" fill-rule="evenodd"></path></g></svg>